<svg width="12" height="12" viewBox="0 0 12 12" fill="none" xmlns="http://www.w3.org/2000/svg">
<circle cx="6" cy="6" r="6" fill="#969696"/>
<g clip-path="url(#clip0_683_995)">
<path d="M6.00009 2.84961C5.34391 2.85038 4.71484 3.11139 4.25085 3.57538C3.78687 4.03936 3.52586 4.66844 3.52509 5.32461C3.5243 5.86083 3.69946 6.38251 4.02369 6.80961C4.02369 6.80961 4.09119 6.89848 4.10221 6.91131L6.00009 9.14961L7.89886 6.91018C7.90876 6.89826 7.97649 6.80961 7.97649 6.80961L7.97671 6.80893C8.30078 6.38202 8.47586 5.86059 8.47509 5.32461C8.47431 4.66844 8.21331 4.03936 7.74932 3.57538C7.28534 3.11139 6.65626 2.85038 6.00009 2.84961ZM6.00009 6.22461C5.82209 6.22461 5.64808 6.17183 5.50008 6.07293C5.35207 5.97404 5.23672 5.83348 5.1686 5.66902C5.10048 5.50457 5.08265 5.32361 5.11738 5.14903C5.15211 4.97445 5.23782 4.81408 5.36369 4.68821C5.48956 4.56235 5.64992 4.47663 5.82451 4.4419C5.99909 4.40718 6.18005 4.425 6.3445 4.49312C6.50896 4.56124 6.64952 4.67659 6.74841 4.8246C6.8473 4.9726 6.90009 5.14661 6.90009 5.32461C6.89979 5.56321 6.80487 5.79196 6.63616 5.96068C6.46744 6.1294 6.23869 6.22431 6.00009 6.22461Z" fill="white"/>
</g>
<defs>
<clipPath id="clip0_683_995">
<rect width="7.2" height="7.2" fill="white" transform="translate(2.40009 2.39941)"/>
</clipPath>
</defs>
</svg>
