<svg width="12" height="12" viewBox="0 0 12 12" fill="none" xmlns="http://www.w3.org/2000/svg">
<circle cx="6" cy="6" r="6" fill="#969696"/>
<g clip-path="url(#clip0_683_987)">
<path d="M6.00035 7.01007C7.38082 7.01007 8.5458 7.23439 8.5458 8.09985C8.5458 8.96563 7.37318 9.182 6.00035 9.182C4.6202 9.182 3.4549 8.95768 3.4549 8.09221C3.4549 7.22643 4.62752 7.01007 6.00035 7.01007ZM6.00035 2.81836C6.93552 2.81836 7.6848 3.56737 7.6848 4.50188C7.6848 5.43639 6.93552 6.18571 6.00035 6.18571C5.0655 6.18571 4.3159 5.43639 4.3159 4.50188C4.3159 3.56737 5.0655 2.81836 6.00035 2.81836Z" fill="white"/>
</g>
<defs>
<clipPath id="clip0_683_987">
<rect width="7.63636" height="7.63636" fill="white" transform="translate(2.18195 2.18164)"/>
</clipPath>
</defs>
</svg>
