<svg width="14" height="9" viewBox="0 0 14 9" fill="none" xmlns="http://www.w3.org/2000/svg">
<path fill-rule="evenodd" clip-rule="evenodd" d="M13.5402 1.32846C13.6312 1.03129 13.5402 0.8125 13.1041 0.8125H11.6641C11.2977 0.8125 11.1288 1.00136 11.0371 1.20981C11.0371 1.20981 10.3048 2.94926 9.26754 4.07914C8.93182 4.40679 8.77933 4.51074 8.59612 4.51074C8.50451 4.51074 8.36682 4.40679 8.36682 4.10908V1.32846C8.36682 0.971424 8.26589 0.8125 7.9609 0.8125H5.6965C5.46776 0.8125 5.33007 0.977955 5.33007 1.13525C5.33007 1.47323 5.849 1.5516 5.90221 2.50297V4.57007C5.90221 5.02344 5.81828 5.10562 5.63506 5.10562C5.14686 5.10562 3.95926 3.358 3.25437 1.35839C3.11779 0.969247 2.97955 0.8125 2.61148 0.8125H1.17045C0.75904 0.8125 0.676758 1.00136 0.676758 1.20981C0.676758 1.58099 1.16496 3.42495 2.95048 5.86377C4.14083 7.52921 5.81663 8.43213 7.34324 8.43213C8.25876 8.43213 8.37176 8.23184 8.37176 7.88624V6.62737C8.37176 6.22625 8.45843 6.14624 8.74861 6.14624C8.96254 6.14624 9.32842 6.25074 10.1831 7.05352C11.1595 8.00543 11.3202 8.43213 11.8698 8.43213H13.3098C13.7212 8.43213 13.9274 8.23184 13.8089 7.83562C13.6784 7.44158 13.2121 6.86956 12.5939 6.19087C12.2582 5.80445 11.7546 5.38809 11.6016 5.17964C11.3882 4.91241 11.4491 4.79321 11.6016 4.55537C11.6016 4.55537 13.3569 2.14648 13.5396 1.32846H13.5402Z" fill="black"/>
</svg>
