<svg width="14" height="15" viewBox="0 0 14 15" fill="none" xmlns="http://www.w3.org/2000/svg">
<path d="M11.9532 8.15337C11.9799 7.94004 11.9999 7.72671 11.9999 7.50004C11.9999 7.27337 11.9799 7.06004 11.9532 6.84671L13.3599 5.74671C13.4866 5.64671 13.5199 5.46671 13.4399 5.32004L12.1066 3.01337C12.0266 2.86671 11.8466 2.81337 11.6999 2.86671L10.0399 3.53337C9.69323 3.26671 9.31989 3.04671 8.91323 2.88004L8.65989 1.11337C8.63989 0.953374 8.49989 0.833374 8.33323 0.833374H5.66656C5.49989 0.833374 5.35989 0.953374 5.33989 1.11337L5.08656 2.88004C4.67989 3.04671 4.30656 3.27337 3.95989 3.53337L2.29989 2.86671C2.14656 2.80671 1.97323 2.86671 1.89323 3.01337L0.559893 5.32004C0.473226 5.46671 0.513226 5.64671 0.639893 5.74671L2.04656 6.84671C2.01989 7.06004 1.99989 7.28004 1.99989 7.50004C1.99989 7.72004 2.01989 7.94004 2.04656 8.15337L0.639893 9.25337C0.513226 9.35337 0.479893 9.53337 0.559893 9.68004L1.89323 11.9867C1.97323 12.1334 2.15323 12.1867 2.29989 12.1334L3.95989 11.4667C4.30656 11.7334 4.67989 11.9534 5.08656 12.12L5.33989 13.8867C5.35989 14.0467 5.49989 14.1667 5.66656 14.1667H8.33323C8.49989 14.1667 8.63989 14.0467 8.65989 13.8867L8.91323 12.12C9.31989 11.9534 9.69323 11.7267 10.0399 11.4667L11.6999 12.1334C11.8532 12.1934 12.0266 12.1334 12.1066 11.9867L13.4399 9.68004C13.5199 9.53337 13.4866 9.35337 13.3599 9.25337L11.9532 8.15337ZM6.99989 9.83337C5.71323 9.83337 4.66656 8.78671 4.66656 7.50004C4.66656 6.21337 5.71323 5.16671 6.99989 5.16671C8.28656 5.16671 9.33323 6.21337 9.33323 7.50004C9.33323 8.78671 8.28656 9.83337 6.99989 9.83337Z" fill="#002033"/>
</svg>
