<svg width="20" height="15" viewBox="0 0 20 15" fill="none" xmlns="http://www.w3.org/2000/svg">
<path d="M19.1209 3.99392L19.098 3.83993L19.0742 3.84542C18.9113 3.08371 18.5361 2.38368 17.9919 1.82633C17.4477 1.26898 16.7569 0.877097 15.9993 0.696018C15.2417 0.514939 14.4483 0.552067 13.7109 0.803107C12.9736 1.05415 12.3223 1.50884 11.8326 2.11457C11.3429 2.7203 11.0347 3.45231 10.9436 4.22591C10.8526 4.99951 10.9825 5.78308 11.3182 6.48595C11.6539 7.18882 12.1818 7.78226 12.8408 8.19762C13.4997 8.61298 14.2628 8.83327 15.0418 8.83301C15.2462 8.83301 15.4423 8.80184 15.6376 8.77343C15.5743 8.98609 15.5093 9.20243 15.4048 9.39676C15.3003 9.67909 15.1371 9.92384 14.9748 10.1704C14.8392 10.4372 14.5999 10.6178 14.4239 10.846C14.2397 11.0678 13.9885 11.2154 13.7896 11.3997C13.5943 11.5922 13.3386 11.6884 13.1351 11.8241C12.9224 11.946 12.7373 12.0808 12.5393 12.1449L12.0452 12.3484L11.6107 12.529L12.0543 14.3064L12.6016 14.1744C12.7767 14.1304 12.9903 14.0791 13.2332 14.0177C13.4816 13.9718 13.7465 13.8463 14.0417 13.7317C14.3323 13.6006 14.6705 13.5135 14.984 13.3036C15.2993 13.1038 15.6633 12.9369 15.9841 12.6693C16.2948 12.3933 16.6698 12.1541 16.9466 11.8039C17.2491 11.4758 17.5479 11.1311 17.7798 10.7388C18.0484 10.3648 18.2308 9.95409 18.4233 9.54801C18.5975 9.14192 18.7378 8.72668 18.8523 8.32334C19.0696 7.51484 19.1668 6.74668 19.2043 6.08943C19.2355 5.43126 19.2172 4.88401 19.1787 4.48801C19.1658 4.32263 19.1465 4.15781 19.1209 3.99392ZM9.03759 3.99392L9.01467 3.83993L8.99084 3.84542C8.82795 3.08371 8.45273 2.38368 7.90857 1.82633C7.36441 1.26898 6.67357 0.877097 5.91597 0.696018C5.15837 0.514939 4.36499 0.552067 3.62761 0.803107C2.89023 1.05415 2.23901 1.50884 1.74928 2.11457C1.25955 2.7203 0.951338 3.45231 0.860302 4.22591C0.769266 4.99951 0.899128 5.78308 1.23486 6.48595C1.5706 7.18882 2.09848 7.78226 2.75744 8.19762C3.41639 8.61298 4.17948 8.83327 4.95842 8.83301C5.16284 8.83301 5.359 8.80184 5.55425 8.77343C5.491 8.98609 5.42592 9.20243 5.32142 9.39676C5.21692 9.67909 5.05375 9.92384 4.8915 10.1704C4.75584 10.4372 4.51659 10.6178 4.34059 10.846C4.15634 11.0678 3.90517 11.2154 3.70625 11.3997C3.511 11.5922 3.25525 11.6884 3.05175 11.8241C2.83909 11.946 2.65392 12.0808 2.45592 12.1449L1.96184 12.3484C1.68592 12.4612 1.52825 12.5272 1.52825 12.5272L1.97192 14.3046L2.51917 14.1726C2.69425 14.1286 2.90784 14.0773 3.15075 14.0158C3.39917 13.97 3.66409 13.8444 3.95925 13.7298C4.24984 13.5988 4.58809 13.5117 4.90159 13.3018C5.21692 13.1019 5.58084 12.9351 5.90167 12.6674C6.21242 12.3915 6.58734 12.1523 6.86417 11.8021C7.16667 11.4739 7.4655 11.1293 7.69742 10.7369C7.966 10.3629 8.14842 9.95226 8.34092 9.54618C8.51509 9.14009 8.65534 8.72484 8.76992 8.32151C8.98717 7.51301 9.08434 6.74484 9.12192 6.08759C9.15309 5.42943 9.13476 4.88217 9.09626 4.48618C9.08257 4.32145 9.063 4.15726 9.03759 3.99392Z" fill="black"/>
</svg>
