<svg width="19" height="11" viewBox="0 0 19 11" fill="none" xmlns="http://www.w3.org/2000/svg">
<path d="M4.32 2.58956C4.32 3.09356 4.152 3.53223 3.816 3.90556C3.48 4.2789 3.02267 4.46556 2.444 4.46556C1.86533 4.46556 1.408 4.2789 1.072 3.90556C0.736 3.53223 0.568 3.09356 0.568 2.58956C0.568 2.08556 0.736 1.6469 1.072 1.27356C1.408 0.900229 1.86533 0.713562 2.444 0.713562C3.02267 0.713562 3.48 0.900229 3.816 1.27356C4.152 1.6469 4.32 2.08556 4.32 2.58956ZM11.2106 2.58956C11.2106 3.09356 11.0426 3.53223 10.7066 3.90556C10.3706 4.2789 9.91329 4.46556 9.33463 4.46556C8.75596 4.46556 8.29863 4.2789 7.96263 3.90556C7.62663 3.53223 7.45863 3.09356 7.45863 2.58956C7.45863 2.08556 7.62663 1.6469 7.96263 1.27356C8.29863 0.900229 8.75596 0.713562 9.33463 0.713562C9.91329 0.713562 10.3706 0.900229 10.7066 1.27356C11.0426 1.6469 11.2106 2.08556 11.2106 2.58956ZM18.1013 2.58956C18.1013 3.09356 17.9333 3.53223 17.5973 3.90556C17.2613 4.2789 16.8039 4.46556 16.2253 4.46556C15.6466 4.46556 15.1893 4.2789 14.8533 3.90556C14.5173 3.53223 14.3493 3.09356 14.3493 2.58956C14.3493 2.08556 14.5173 1.6469 14.8533 1.27356C15.1893 0.900229 15.6466 0.713562 16.2253 0.713562C16.8039 0.713562 17.2613 0.900229 17.5973 1.27356C17.9333 1.6469 18.1013 2.08556 18.1013 2.58956ZM4.32 8.58956C4.32 9.09356 4.152 9.53223 3.816 9.90556C3.48 10.2789 3.02267 10.4656 2.444 10.4656C1.86533 10.4656 1.408 10.2789 1.072 9.90556C0.736 9.53223 0.568 9.09356 0.568 8.58956C0.568 8.08556 0.736 7.6469 1.072 7.27356C1.408 6.90023 1.86533 6.71356 2.444 6.71356C3.02267 6.71356 3.48 6.90023 3.816 7.27356C4.152 7.6469 4.32 8.08556 4.32 8.58956ZM11.2106 8.58956C11.2106 9.09356 11.0426 9.53223 10.7066 9.90556C10.3706 10.2789 9.91329 10.4656 9.33463 10.4656C8.75596 10.4656 8.29863 10.2789 7.96263 9.90556C7.62663 9.53223 7.45863 9.09356 7.45863 8.58956C7.45863 8.08556 7.62663 7.6469 7.96263 7.27356C8.29863 6.90023 8.75596 6.71356 9.33463 6.71356C9.91329 6.71356 10.3706 6.90023 10.7066 7.27356C11.0426 7.6469 11.2106 8.08556 11.2106 8.58956ZM18.1013 8.58956C18.1013 9.09356 17.9333 9.53223 17.5973 9.90556C17.2613 10.2789 16.8039 10.4656 16.2253 10.4656C15.6466 10.4656 15.1893 10.2789 14.8533 9.90556C14.5173 9.53223 14.3493 9.09356 14.3493 8.58956C14.3493 8.08556 14.5173 7.6469 14.8533 7.27356C15.1893 6.90023 15.6466 6.71356 16.2253 6.71356C16.8039 6.71356 17.2613 6.90023 17.5973 7.27356C17.9333 7.6469 18.1013 8.08556 18.1013 8.58956Z" fill="#C4C4C4"/>
</svg>
