<svg width="14" height="15" viewBox="0 0 14 15" fill="none" xmlns="http://www.w3.org/2000/svg">
<g clip-path="url(#clip0_1664_6043)">
<path d="M9.44126 0.75H4.33889C1.99095 0.75 0.0869141 2.63916 0.0869141 4.96875V10.0312C0.0869141 12.3608 1.99095 14.25 4.33889 14.25H9.44126C11.7892 14.25 13.6932 12.3608 13.6932 10.0312V4.96875C13.6932 2.63916 11.7892 0.75 9.44126 0.75ZM12.4176 10.0312C12.4176 11.6597 11.0825 12.9844 9.44126 12.9844H4.33889C2.69763 12.9844 1.36251 11.6597 1.36251 10.0312V4.96875C1.36251 3.34031 2.69763 2.01562 4.33889 2.01562H9.44126C11.0825 2.01562 12.4176 3.34031 12.4176 4.96875V10.0312Z" fill="black"/>
<path d="M6.88986 4.125C5.01134 4.125 3.48828 5.63616 3.48828 7.5C3.48828 9.36384 5.01134 10.875 6.88986 10.875C8.76839 10.875 10.2914 9.36384 10.2914 7.5C10.2914 5.63616 8.76839 4.125 6.88986 4.125ZM6.88986 9.60937C5.71802 9.60937 4.76387 8.66269 4.76387 7.5C4.76387 6.33647 5.71802 5.39062 6.88986 5.39062C8.06171 5.39062 9.01585 6.33647 9.01585 7.5C9.01585 8.66269 8.06171 9.60937 6.88986 9.60937Z" fill="black"/>
<path d="M10.6592 4.30879C10.9014 4.24799 11.0476 4.00328 10.9857 3.76221C10.9237 3.52115 10.6771 3.37501 10.4348 3.43581C10.1925 3.49661 10.0463 3.74132 10.1083 3.98239C10.1702 4.22345 10.4169 4.36958 10.6592 4.30879Z" fill="black"/>
</g>
<defs>
<clipPath id="clip0_1664_6043">
<rect width="13.6063" height="13.5" fill="white" transform="translate(0.0869141 0.75)"/>
</clipPath>
</defs>
</svg>
