<svg width="20" height="17" viewBox="0 0 20 17" fill="none" xmlns="http://www.w3.org/2000/svg">
<path fill-rule="evenodd" clip-rule="evenodd" d="M10.0028 0C14.1388 0.003 17.8527 2.902 19.9387 7.756C20.0208 7.945 20.0208 8.159 19.9387 8.348C17.8537 13.203 14.1388 16.102 10.0028 16.105H9.99675C5.86075 16.102 2.14675 13.203 0.06075 8.348C-0.02025 8.159 -0.02025 7.945 0.06075 7.756C2.14675 2.902 5.86175 0.003 9.99675 0H10.0028ZM9.99975 1.5C6.56375 1.501 3.42975 3.944 1.56975 8.052C3.42975 12.161 6.56275 14.604 9.99975 14.605C13.4368 14.604 16.5697 12.161 18.4297 8.052C16.5697 3.944 13.4368 1.501 9.99975 1.5ZM9.99945 4.1408C12.1565 4.1408 13.9115 5.8958 13.9115 8.0528C13.9115 10.2088 12.1565 11.9628 9.99945 11.9628C7.84245 11.9628 6.08845 10.2088 6.08845 8.0528C6.08845 5.8958 7.84245 4.1408 9.99945 4.1408ZM9.99945 5.6408C8.66945 5.6408 7.58845 6.7228 7.58845 8.0528C7.58845 9.3818 8.66945 10.4628 9.99945 10.4628C11.3295 10.4628 12.4115 9.3818 12.4115 8.0528C12.4115 6.7228 11.3295 5.6408 9.99945 5.6408Z" fill="black" fill-opacity="0.5"/>
</svg>
