<svg width="42" height="42" viewBox="0 0 42 42" fill="none" xmlns="http://www.w3.org/2000/svg">
<path d="M21 0C32.613 0 42 9.4101 42 21C42 32.5941 32.613 42 21 42C9.408 42 0 32.5941 0 21C0 9.4101 9.408 0 21 0ZM21 27.1551C19.992 27.1551 19.173 27.9741 19.173 28.9821C19.173 29.9901 19.992 30.8301 21.021 30.8301C22.029 30.8301 22.848 29.9901 22.848 28.9821C22.848 27.9741 22.029 27.1551 21 27.1551ZM21 11.193C19.992 11.193 19.152 12.0351 19.152 13.041V22.323C19.152 23.3331 19.992 24.15 21 24.15C22.008 24.15 22.827 23.3331 22.827 22.323V13.041C22.827 12.0351 22.008 11.193 21 11.193Z" fill="#FEB932"/>
</svg>
