<svg width="25" height="23" viewBox="0 0 25 23" fill="none" xmlns="http://www.w3.org/2000/svg">
<path fill-rule="evenodd" clip-rule="evenodd" d="M6.90212 6.34344C7.40237 6.34344 7.80837 6.74944 7.80837 7.24969C7.80837 7.74994 7.40237 8.15594 6.90212 8.15594H5.76508C3.81483 8.15594 2.22949 9.74006 2.22949 11.6891V17.5918C2.22949 19.5481 3.81966 21.1383 5.77595 21.1383H19.2368C21.1846 21.1383 22.7712 19.5517 22.7712 17.6039V11.7024C22.7712 9.7461 21.1798 8.15594 19.2259 8.15594H18.0997C17.5995 8.15594 17.1935 7.74994 17.1935 7.24969C17.1935 6.74944 17.5995 6.34344 18.0997 6.34344H19.2259C22.1803 6.34344 24.5837 8.74802 24.5837 11.7024V17.6039C24.5837 20.5522 22.1839 22.9508 19.2368 22.9508H5.77595C2.82158 22.9508 0.416992 20.5474 0.416992 17.5918V11.6891C0.416992 8.74077 2.81553 6.34344 5.76508 6.34344H6.90212ZM12.5013 0.625C13.0015 0.625 13.4075 1.031 13.4075 1.53125L13.4066 13.8877L15.3832 11.9036C15.736 11.5483 16.3087 11.5483 16.664 11.9012C17.018 12.254 17.0192 12.828 16.6664 13.1832L13.1511 16.7123C13.1167 16.7476 13.0796 16.7802 13.0399 16.8095L13.1429 16.72C13.104 16.7595 13.0618 16.7949 13.0169 16.8261C12.9895 16.845 12.9616 16.8621 12.9329 16.8778C12.919 16.8853 12.9044 16.8927 12.8897 16.8997C12.8633 16.9123 12.8362 16.9236 12.8086 16.9336C12.7947 16.9385 12.7808 16.9431 12.7669 16.9473C12.7328 16.9579 12.6978 16.9664 12.6621 16.9728C12.6541 16.9741 12.6467 16.9754 12.6394 16.9765C12.6106 16.981 12.5805 16.9841 12.55 16.9858C12.5336 16.9866 12.5175 16.987 12.5013 16.987L12.4532 16.9834L12.3784 16.9788C12.373 16.978 12.3677 16.9773 12.3624 16.9765L12.5013 16.987C12.4473 16.987 12.3937 16.9822 12.3412 16.9728C12.3048 16.9664 12.2699 16.9579 12.2359 16.9475C12.2223 16.9432 12.2089 16.9388 12.1956 16.934C12.1679 16.9242 12.1404 16.9128 12.1137 16.9001C12.0975 16.8924 12.0814 16.8842 12.0655 16.8755C12.0432 16.8632 12.0217 16.8501 12.0008 16.8363C11.9864 16.8268 11.9721 16.8167 11.9581 16.8061C11.9236 16.7802 11.891 16.7519 11.8606 16.7215L11.8597 16.72L8.33617 13.1832C7.98333 12.828 7.98454 12.254 8.33858 11.9012C8.69383 11.5483 9.26658 11.5483 9.61942 11.9036L11.5941 13.8877L11.595 1.53125C11.595 1.031 12.001 0.625 12.5013 0.625Z" fill="black"/>
</svg>
