<svg width="14" height="12" viewBox="0 0 14 12" fill="none" xmlns="http://www.w3.org/2000/svg">
<path fill-rule="evenodd" clip-rule="evenodd" d="M9.71743 0.166992C11.6599 0.166992 13.1247 1.75191 13.1247 3.85366V7.85999C13.1247 8.93566 12.7443 9.90749 12.0531 10.597C11.433 11.2147 10.6286 11.542 9.72676 11.542H3.97917C3.07909 11.542 2.27526 11.2153 1.65459 10.597C0.963341 9.90749 0.583008 8.93566 0.583008 7.85999V3.85366C0.583008 1.75191 2.04776 0.166992 3.99026 0.166992H9.71743ZM9.71743 1.04199H3.99026C2.52317 1.04199 1.45801 2.22441 1.45801 3.85366V7.85999C1.45801 8.70174 1.74734 9.45366 2.27234 9.97691C2.72501 10.429 3.31592 10.667 3.98092 10.667H9.71743C9.71859 10.6658 9.72326 10.667 9.72676 10.667C10.3923 10.667 10.9827 10.429 11.4353 9.97691C11.9609 9.45366 12.2497 8.70174 12.2497 7.85999V3.85366C12.2497 2.22441 11.1845 1.04199 9.71743 1.04199ZM10.6368 3.74213C10.789 3.92938 10.7604 4.20471 10.5732 4.35754L7.98084 6.46454C7.65301 6.72471 7.26101 6.85479 6.86959 6.85479C6.47934 6.85479 6.09026 6.72588 5.76476 6.46804L3.14851 4.35871C2.96009 4.20704 2.93092 3.93113 3.08201 3.74329C3.23426 3.55604 3.50959 3.52629 3.69742 3.67738L6.31134 5.78438C6.63976 6.04454 7.10234 6.04454 7.43309 5.78204L10.0208 3.67854C10.2086 3.52513 10.4839 3.55429 10.6368 3.74213Z" fill="black"/>
</svg>
