<svg width="37" height="37" viewBox="0 0 37 37" fill="none" xmlns="http://www.w3.org/2000/svg">
<circle cx="18.5" cy="18.5" r="18.5" fill="#AB2E4D"/>
<path d="M8.85938 16.1719V26.25H6.97656V14.5469H8.71094L8.85938 16.1719ZM14.3672 18.6953V18.8594C14.3672 19.474 14.2943 20.0443 14.1484 20.5703C14.0078 21.0911 13.7969 21.5469 13.5156 21.9375C13.2396 22.3229 12.8984 22.6224 12.4922 22.8359C12.0859 23.0495 11.6172 23.1562 11.0859 23.1562C10.5599 23.1562 10.099 23.0599 9.70312 22.8672C9.3125 22.6693 8.98177 22.3906 8.71094 22.0312C8.4401 21.6719 8.22135 21.25 8.05469 20.7656C7.89323 20.276 7.77865 19.7396 7.71094 19.1562V18.5234C7.77865 17.9036 7.89323 17.3411 8.05469 16.8359C8.22135 16.3307 8.4401 15.8958 8.71094 15.5312C8.98177 15.1667 9.3125 14.8854 9.70312 14.6875C10.0938 14.4896 10.5495 14.3906 11.0703 14.3906C11.6016 14.3906 12.0729 14.4948 12.4844 14.7031C12.8958 14.9062 13.2422 15.1979 13.5234 15.5781C13.8047 15.9531 14.0156 16.4062 14.1562 16.9375C14.2969 17.4635 14.3672 18.0495 14.3672 18.6953ZM12.4844 18.8594V18.6953C12.4844 18.3047 12.4479 17.9427 12.375 17.6094C12.3021 17.2708 12.1875 16.974 12.0312 16.7188C11.875 16.4635 11.6745 16.2656 11.4297 16.125C11.1901 15.9792 10.901 15.9062 10.5625 15.9062C10.2292 15.9062 9.94271 15.9635 9.70312 16.0781C9.46354 16.1875 9.26302 16.3411 9.10156 16.5391C8.9401 16.737 8.8151 16.9688 8.72656 17.2344C8.63802 17.4948 8.57552 17.7786 8.53906 18.0859V19.6016C8.60156 19.9766 8.70833 20.3203 8.85938 20.6328C9.01042 20.9453 9.22396 21.1953 9.5 21.3828C9.78125 21.5651 10.1406 21.6562 10.5781 21.6562C10.9167 21.6562 11.2057 21.5833 11.4453 21.4375C11.6849 21.2917 11.8802 21.0911 12.0312 20.8359C12.1875 20.5755 12.3021 20.276 12.375 19.9375C12.4479 19.599 12.4844 19.2396 12.4844 18.8594ZM21.125 21.25V11H23.0156V23H21.3047L21.125 21.25ZM15.625 18.8672V18.7031C15.625 18.0625 15.7005 17.4792 15.8516 16.9531C16.0026 16.4219 16.2214 15.9661 16.5078 15.5859C16.7943 15.2005 17.1432 14.9062 17.5547 14.7031C17.9661 14.4948 18.4297 14.3906 18.9453 14.3906C19.4557 14.3906 19.9036 14.4896 20.2891 14.6875C20.6745 14.8854 21.0026 15.1693 21.2734 15.5391C21.5443 15.9036 21.7604 16.3411 21.9219 16.8516C22.0833 17.3568 22.1979 17.9193 22.2656 18.5391V19.0625C22.1979 19.6667 22.0833 20.2188 21.9219 20.7188C21.7604 21.2188 21.5443 21.651 21.2734 22.0156C21.0026 22.3802 20.6719 22.6615 20.2812 22.8594C19.8958 23.0573 19.4453 23.1562 18.9297 23.1562C18.4193 23.1562 17.9583 23.0495 17.5469 22.8359C17.1406 22.6224 16.7943 22.3229 16.5078 21.9375C16.2214 21.5521 16.0026 21.099 15.8516 20.5781C15.7005 20.0521 15.625 19.4818 15.625 18.8672ZM17.5078 18.7031V18.8672C17.5078 19.2526 17.5417 19.612 17.6094 19.9453C17.6823 20.2786 17.7943 20.5729 17.9453 20.8281C18.0964 21.0781 18.2917 21.276 18.5312 21.4219C18.776 21.5625 19.0677 21.6328 19.4062 21.6328C19.8333 21.6328 20.1849 21.5391 20.4609 21.3516C20.737 21.1641 20.9531 20.9115 21.1094 20.5938C21.2708 20.2708 21.3802 19.9115 21.4375 19.5156V18.1016C21.4062 17.7943 21.3411 17.5078 21.2422 17.2422C21.1484 16.9766 21.0208 16.7448 20.8594 16.5469C20.6979 16.3438 20.4974 16.1875 20.2578 16.0781C20.0234 15.9635 19.7448 15.9062 19.4219 15.9062C19.0781 15.9062 18.7865 15.9792 18.5469 16.125C18.3073 16.2708 18.1094 16.4714 17.9531 16.7266C17.8021 16.9818 17.6901 17.2786 17.6172 17.6172C17.5443 17.9557 17.5078 18.3177 17.5078 18.7031ZM27.5312 23H25.6484V13.7344C25.6484 13.1042 25.7656 12.5755 26 12.1484C26.2396 11.7161 26.5807 11.3906 27.0234 11.1719C27.4661 10.9479 27.9896 10.8359 28.5938 10.8359C28.7812 10.8359 28.9661 10.849 29.1484 10.875C29.3307 10.8958 29.5078 10.9297 29.6797 10.9766L29.6328 12.4297C29.5286 12.4036 29.4141 12.3854 29.2891 12.375C29.1693 12.3646 29.0391 12.3594 28.8984 12.3594C28.612 12.3594 28.3646 12.4141 28.1562 12.5234C27.9531 12.6276 27.7969 12.7812 27.6875 12.9844C27.5833 13.1875 27.5312 13.4375 27.5312 13.7344V23ZM29.2734 14.5469V15.9219H24.3516V14.5469H29.2734Z" fill="white"/>
</svg>
