<svg width="14" height="15" viewBox="0 0 14 15" fill="none" xmlns="http://www.w3.org/2000/svg">
<path d="M7 0.101562C6.51675 0.101562 6.125 0.493313 6.125 0.976562V6.22656H0.875C0.391751 6.22656 0 6.61831 0 7.10156C0 7.58481 0.391751 7.97656 0.875 7.97656H6.125V13.2266C6.125 13.7098 6.51675 14.1016 7 14.1016C7.48325 14.1016 7.875 13.7098 7.875 13.2266V7.97656H13.125C13.6082 7.97656 14 7.58481 14 7.10156C14 6.61831 13.6082 6.22656 13.125 6.22656H7.875V0.976562C7.875 0.493313 7.48325 0.101562 7 0.101562Z" fill="#39289D"/>
</svg>
