<svg width="13" height="13" viewBox="0 0 13 13" fill="none" xmlns="http://www.w3.org/2000/svg">
<path d="M3.84474 0.101562V0.0515625H3.89474H10.8421C11.5059 0.0515625 12.05 0.58762 12.05 1.24442V9.24442V9.29442H12H10.8421H10.7921V9.24442V1.29442H3.89474H3.84474V1.24442V0.101562ZM2.1579 2.33728H8.52632C9.19015 2.33728 9.73421 2.87333 9.73421 3.53013V11.5301C9.73421 12.1869 9.19015 12.723 8.52632 12.723H2.1579C1.49406 12.723 0.95 12.1869 0.95 11.5301V3.53013C0.95 2.87333 1.49406 2.33728 2.1579 2.33728ZM2.2079 11.4801H8.47632V3.58013H2.2079V11.4801Z" fill="#39289D" stroke="#6E6C6C" stroke-width="0.1"/>
</svg>
