<svg width="13" height="15" viewBox="0 0 13 15" fill="none" xmlns="http://www.w3.org/2000/svg">
<path fill-rule="evenodd" clip-rule="evenodd" d="M10.1111 2.31209V1.57525C10.1111 0.761353 9.46441 0.101562 8.66667 0.101562H4.33333C3.53559 0.101562 2.88889 0.761353 2.88889 1.57525V2.31209H0.722222C0.32335 2.31209 0 2.64198 0 3.04893C0 3.45588 0.32335 3.78577 0.722222 3.78577H1.44444V11.891C1.44444 13.1119 2.41449 14.1016 3.61111 14.1016H9.38889C10.5855 14.1016 11.5556 13.1119 11.5556 11.891V3.78577H12.2778C12.6767 3.78577 13 3.45588 13 3.04893C13 2.64198 12.6767 2.31209 12.2778 2.31209H10.1111ZM8.66667 1.57525H4.33333V2.31209H8.66667V1.57525ZM10.1111 3.78577H2.88889V11.891C2.88889 12.298 3.21224 12.6279 3.61111 12.6279H9.38889C9.78776 12.6279 10.1111 12.298 10.1111 11.891V3.78577Z" fill="#39289D"/>
<path d="M4.33333 5.25946H5.77778V11.1542H4.33333V5.25946Z" fill="#39289D"/>
<path d="M7.22222 5.25946H8.66667V11.1542H7.22222V5.25946Z" fill="#39289D"/>
</svg>
