<svg width="15" height="12" viewBox="0 0 15 12" fill="none" xmlns="http://www.w3.org/2000/svg">
<path d="M3.92811 7.08999L1.8625 8.92766V1.72656C1.8625 1.52433 1.94283 1.33039 2.08583 1.18739C2.22883 1.0444 2.42277 0.964063 2.625 0.964063H12.375C12.5772 0.964063 12.7712 1.0444 12.9142 1.18739C13.0572 1.33039 13.1375 1.52433 13.1375 1.72656V6.92579L10.1416 5.38143L10.1411 5.38117C10.0555 5.3383 9.95862 5.32343 9.86413 5.33866C9.76965 5.35389 9.68234 5.39845 9.61457 5.46603L9.61452 5.46608L6.62912 8.45148L4.50197 7.03445L4.50196 7.03444C4.41432 6.9761 4.3092 6.94985 4.20443 6.96017C4.10013 6.97043 4.00257 7.01628 3.92811 7.08999ZM2.625 0.0515625C2.18076 0.0515625 1.75472 0.228035 1.4406 0.542159C1.12647 0.856282 0.95 1.28232 0.95 1.72656V9.85156C0.95 10.2958 1.12647 10.7218 1.4406 11.036C1.75472 11.3501 2.18076 11.5266 2.625 11.5266H12.375C12.8192 11.5266 13.2453 11.3501 13.5594 11.036C13.8735 10.7218 14.05 10.2958 14.05 9.85156V1.72656C14.05 1.28232 13.8735 0.856282 13.5594 0.542159C13.2453 0.228035 12.8192 0.0515625 12.375 0.0515625H2.625Z" fill="#39289D" stroke="#6E6C6C" stroke-width="0.1"/>
</svg>
