<svg width="7" height="10" viewBox="0 0 7 10" fill="none" xmlns="http://www.w3.org/2000/svg">
<path d="M0.405907 8.9375H6.59341C6.67931 8.93734 6.76215 8.96935 6.82563 9.02722C6.88911 9.0851 6.92862 9.16464 6.93638 9.25019C6.94415 9.33574 6.91959 9.42109 6.86757 9.48945C6.81554 9.5578 6.73981 9.6042 6.65528 9.6195L6.59341 9.625H0.405907C0.320007 9.62516 0.23716 9.59315 0.173681 9.53528C0.110202 9.4774 0.0706917 9.39786 0.0629302 9.31231C0.0551687 9.22676 0.0797186 9.14141 0.131746 9.07305C0.183772 9.0047 0.259506 8.9583 0.344032 8.943L0.405907 8.9375H6.59341H0.405907ZM3.43778 0.693L3.49966 0.6875C3.58011 0.687473 3.65803 0.715668 3.71984 0.767174C3.78164 0.81868 3.82343 0.890234 3.83791 0.969375L3.84341 1.03125V7.07575L5.68728 5.23256C5.74416 5.17562 5.81922 5.14044 5.89937 5.13315C5.97952 5.12586 6.05969 5.14693 6.12591 5.19269L6.17403 5.23256C6.23087 5.28953 6.26592 5.36462 6.27309 5.44478C6.28025 5.52493 6.25906 5.60505 6.21322 5.67119L6.17334 5.71863L3.74303 8.14962C3.68607 8.20646 3.61097 8.24152 3.53082 8.24868C3.45067 8.25584 3.37054 8.23465 3.30441 8.18881L3.25628 8.14962L0.82597 5.71863C0.765068 5.65799 0.729085 5.57675 0.725111 5.49091C0.721138 5.40506 0.749462 5.32085 0.804503 5.25485C0.859543 5.18885 0.937307 5.14587 1.02247 5.13436C1.10763 5.12285 1.19401 5.14366 1.26459 5.19269L1.31203 5.23256L3.15591 7.07575V1.03125C3.15588 0.950795 3.18408 0.872879 3.23558 0.811072C3.28709 0.749265 3.35864 0.707482 3.43778 0.693L3.49966 0.6875L3.43778 0.693Z" fill="#A3A3A3"/>
</svg>
