<?xml version="1.0" standalone="no"?>
<!DOCTYPE svg PUBLIC "-//W3C//DTD SVG 20010904//EN"
 "http://www.w3.org/TR/2001/REC-SVG-20010904/DTD/svg10.dtd">
<svg version="1.0" xmlns="http://www.w3.org/2000/svg"
 width="539.000000pt" height="539.000000pt" viewBox="0 0 539.000000 539.000000"
 preserveAspectRatio="xMidYMid meet">
<metadata>
Created by potrace 1.14, written by Peter Selinger 2001-2017
</metadata>
<g transform="translate(0.000000,539.000000) scale(0.100000,-0.100000)"
fill="#000000" stroke="none">
<path d="M3200 5219 c-36 -13 -45 -21 -45 -40 0 -25 11 -28 53 -15 23 8 23 6
21 -46 -1 -30 0 -59 4 -64 3 -6 2 -15 -2 -22 -4 -7 -6 -33 -4 -58 4 -54 -8
-73 -43 -69 -29 3 -56 -19 -48 -40 7 -17 1 -16 119 -16 146 -1 134 -6 126 52
-1 3 -19 4 -41 2 -32 -2 -40 0 -41 15 -1 9 -2 82 -3 161 l-1 145 -25 6 c-14 4
-44 -1 -70 -11z"/>
<path d="M3203 4632 c-18 -9 -39 -28 -45 -44 -7 -15 -15 -28 -18 -28 -6 0 -12
-36 -14 -87 0 -18 -5 -33 -9 -33 -4 0 -3 -9 3 -21 7 -11 9 -23 6 -26 -7 -7 25
-85 44 -104 71 -74 187 -35 209 71 6 33 5 159 -2 188 -21 79 -102 119 -174 84z
m107 -30 c14 -6 21 -11 15 -12 -5 0 -4 -4 3 -9 7 -4 15 -17 17 -27 2 -10 4
-19 5 -19 6 0 6 -144 0 -165 -4 -14 -9 -32 -11 -40 -5 -20 -22 -39 -31 -34 -4
2 -9 0 -13 -6 -3 -5 -17 -10 -30 -10 -85 0 -117 77 -103 248 1 12 6 22 10 22
4 0 7 3 6 8 -2 4 8 19 20 33 25 28 66 32 112 11z"/>
<path d="M3250 4053 c-79 -23 -100 -35 -98 -59 2 -21 6 -24 28 -19 13 4 29 7
35 8 6 1 11 -45 11 -125 1 -71 -2 -129 -7 -129 -19 -3 -50 -7 -63 -8 -21 -2
-27 -38 -7 -47 18 -8 218 -7 231 1 5 3 8 14 7 25 -1 19 -13 24 -50 20 -38 -4
-42 13 -42 170 0 126 -2 153 -15 159 -8 5 -22 6 -30 4z"/>
<path d="M84 3889 c-34 -38 -53 -90 -40 -111 10 -17 13 -16 36 12 25 30 26 31
45 12 11 -10 34 -35 50 -56 17 -21 45 -54 62 -74 40 -44 41 -55 8 -76 -14 -9
-25 -23 -25 -31 0 -18 31 -49 39 -38 3 4 35 33 71 63 105 88 105 88 85 110
-17 19 -19 19 -46 3 -16 -10 -29 -21 -29 -26 0 -16 -17 -3 -56 44 -21 25 -61
72 -89 104 -27 32 -54 64 -58 71 -11 20 -31 17 -53 -7z"/>
<path d="M2408 3645 c-1 -1 -23 -5 -48 -8 -58 -7 -190 -37 -211 -48 -9 -4 -27
-10 -40 -13 -40 -8 -145 -44 -178 -61 -17 -8 -32 -15 -33 -14 -9 3 -58 -14
-58 -20 0 -4 -6 -8 -14 -8 -25 0 -147 -67 -182 -99 l-34 -33 25 -19 c14 -11
37 -19 50 -17 27 3 41 -9 47 -40 1 -11 5 -22 8 -25 6 -5 19 -33 100 -205 52
-110 82 -176 85 -185 1 -3 11 -25 22 -50 18 -39 19 -49 8 -76 -16 -40 -11 -93
14 -137 37 -66 65 -122 68 -137 9 -39 10 -61 1 -66 -4 -3 -6 -9 -4 -13 11 -17
-34 -51 -62 -48 -33 4 -102 36 -102 47 0 5 -9 12 -20 15 -11 3 -20 13 -20 21
0 8 -4 14 -9 14 -11 0 -271 260 -271 272 0 4 -4 8 -9 8 -14 0 -71 57 -71 71 0
7 -3 10 -6 7 -9 -10 -91 74 -100 102 -4 14 -8 36 -9 48 -3 32 -20 41 -59 32
-63 -15 -114 -46 -187 -112 -20 -18 -56 -49 -80 -68 -53 -42 -138 -127 -159
-158 -22 -33 -19 -44 15 -55 39 -11 96 -35 115 -47 8 -6 25 -14 37 -20 21 -9
154 -137 244 -235 42 -46 105 -104 180 -165 72 -59 197 -191 206 -217 7 -23
10 -128 3 -128 -1 0 -4 -13 -6 -29 -5 -27 -36 -63 -41 -48 -3 8 -1038 6 -1059
-2 -11 -4 -12 -41 -1 -52 2 -3 105 -6 228 -9 123 -2 269 -7 324 -11 55 -3 145
-7 200 -9 55 -2 100 -4 100 -5 0 -1 41 -3 90 -6 50 -2 101 -5 114 -7 26 -2 27
-6 35 -97 3 -30 7 -66 10 -80 3 -14 8 -34 10 -45 2 -11 11 -40 20 -64 8 -25
13 -48 11 -52 -3 -4 2 -12 10 -19 8 -7 15 -18 15 -24 0 -6 13 -38 30 -71 16
-33 30 -66 30 -72 0 -7 4 -13 9 -13 5 0 16 -16 25 -35 9 -19 21 -37 26 -40 6
-4 8 -11 5 -16 -4 -5 -2 -9 4 -9 5 0 24 -20 41 -44 41 -61 164 -183 225 -226
28 -19 52 -37 55 -40 8 -9 88 -54 157 -89 103 -52 286 -108 383 -116 19 -2 55
-6 80 -10 48 -6 231 -7 290 -1 93 10 150 20 207 35 195 53 416 156 518 243 11
9 31 26 45 38 56 48 130 120 130 127 0 5 14 21 30 37 16 16 32 37 35 47 4 11
11 19 16 19 5 0 9 7 9 15 0 8 3 15 8 15 4 0 12 10 18 23 6 12 25 49 41 82 30
57 70 172 79 225 3 14 7 31 10 39 4 13 13 97 19 181 1 19 3 38 4 41 0 3 16 5
34 4 17 -1 37 1 42 4 6 3 73 6 150 7 77 1 194 5 260 9 66 4 215 8 332 9 116 1
215 5 219 9 13 13 13 38 0 43 -8 3 -195 6 -417 7 -222 1 -409 5 -415 9 -6 4
-14 4 -18 1 -10 -10 -46 -11 -40 -1 3 4 0 8 -5 8 -6 0 -11 -3 -11 -7 0 -5 -20
-8 -44 -8 -26 -1 -42 3 -39 9 4 5 1 6 -8 0 -36 -22 -44 -16 -53 46 -3 19 -8
46 -11 60 -4 14 -8 36 -9 50 -2 14 -11 42 -20 62 -9 21 -16 40 -16 43 0 12
-64 140 -72 143 -4 2 -8 9 -8 16 0 7 -8 21 -17 32 -10 10 -24 31 -32 47 -8 15
-18 27 -23 27 -4 0 -8 4 -8 10 0 5 -13 23 -30 38 -16 16 -30 34 -30 41 0 6 -4
11 -9 11 -6 0 -32 22 -58 48 -59 58 -166 143 -210 166 -18 9 -33 21 -33 26 0
6 -6 10 -14 10 -21 0 -38 52 -40 128 -2 38 -5 73 -7 78 -3 5 -5 23 -4 39 1 17
-2 36 -8 43 -6 8 -6 12 2 12 7 0 9 5 5 12 -4 6 -8 30 -9 52 -1 23 -5 93 -10
156 -10 122 -12 392 -4 474 4 48 3 50 -26 58 -62 17 -358 13 -460 -8 -16 -3
-39 -7 -50 -9 -69 -12 -77 -24 -48 -78 30 -56 39 -109 42 -252 5 -237 7 -291
15 -303 4 -7 2 -12 -5 -12 -7 0 -8 -4 -2 -12 13 -18 9 -145 -6 -189 -11 -35
-12 -36 -62 -33 -28 1 -52 4 -53 6 -29 37 -67 101 -69 115 -2 10 -9 29 -17 43
-7 14 -11 26 -9 27 8 3 -56 73 -68 73 -6 0 -34 10 -62 22 -44 20 -54 30 -59
61 -1 4 -9 21 -17 37 -8 16 -16 33 -16 37 -3 15 -12 38 -33 83 -11 25 -21 47
-21 50 0 3 -6 15 -13 26 -6 12 -8 24 -5 28 3 3 2 6 -4 6 -6 0 -14 10 -18 23
-4 12 -8 25 -10 30 -6 18 -7 22 -6 30 0 4 -3 7 -8 7 -6 0 -23 49 -20 63 0 1
-5 16 -11 32 -6 17 -12 51 -11 77 0 30 -5 48 -14 51 -7 3 -15 4 -17 2z m-58
-55 c0 -3 -17 -12 -37 -19 -21 -8 -41 -18 -44 -23 -4 -6 -18 -11 -32 -11 -14
-1 -23 -5 -21 -9 4 -7 -65 -34 -78 -30 -5 1 -8 -2 -8 -7 0 -7 -48 -22 -66 -20
-4 0 -10 -5 -14 -11 -4 -7 -19 -13 -34 -13 -14 -1 -26 -5 -26 -8 0 -8 -119
-42 -142 -41 -10 0 -18 -3 -18 -7 0 -4 -6 -8 -12 -8 -7 0 -38 -3 -68 -7 -44
-5 -50 5 -8 13 5 1 24 10 43 21 20 11 42 20 49 20 8 0 16 3 18 8 2 6 133 62
158 68 3 0 12 4 20 7 24 10 116 38 131 40 8 2 20 6 27 11 7 4 19 5 27 2 8 -3
15 -2 15 3 0 4 21 12 48 17 58 12 72 13 72 4z m1092 -3 c15 0 25 -4 22 -9 -3
-4 -17 -8 -32 -7 -15 0 -38 -2 -52 -5 -23 -5 -183 -18 -205 -17 -68 4 -106 9
-112 14 -3 4 5 8 18 8 52 3 94 7 94 9 0 1 31 4 69 6 38 2 71 5 72 7 2 1 25 1
51 -1 26 -2 60 -4 75 -5z m-1032 -94 c12 -32 26 -66 31 -75 5 -10 9 -25 9 -33
0 -8 5 -15 10 -15 6 0 10 -7 10 -15 0 -8 9 -30 19 -49 11 -19 17 -37 14 -40
-4 -3 -1 -6 6 -6 7 0 10 -4 7 -8 -3 -5 4 -23 15 -40 10 -18 19 -39 19 -47 0
-8 4 -15 8 -15 4 0 14 -16 21 -35 7 -19 17 -35 23 -35 6 0 8 -3 5 -7 -4 -3 -3
-11 2 -17 5 -6 12 -26 16 -45 19 -87 -58 31 -134 209 -41 94 -125 264 -138
278 -12 13 -60 11 -82 -3 -14 -8 -14 -42 -1 -50 6 -4 8 -11 5 -16 -4 -5 -1 -9
5 -9 6 0 8 -4 5 -10 -3 -5 -1 -10 4 -10 6 0 11 -6 11 -13 0 -13 94 -227 131
-298 13 -24 22 -47 21 -51 -1 -5 2 -8 7 -8 5 0 14 -13 21 -30 7 -16 16 -30 21
-30 5 0 9 -8 9 -19 0 -14 -21 -26 -92 -51 -51 -18 -104 -38 -118 -43 -14 -6
-27 -11 -30 -12 -3 -1 -18 -7 -35 -14 -16 -7 -41 -15 -55 -18 -13 -2 -28 -10
-32 -16 -4 -7 -8 -9 -8 -5 0 5 -23 -1 -52 -12 -28 -10 -55 -17 -59 -15 -4 3
-9 0 -11 -6 -2 -6 -9 0 -15 13 -31 66 -41 93 -37 100 3 4 1 8 -4 8 -5 0 -13
10 -17 23 -10 31 -9 28 -33 76 -12 25 -22 50 -22 57 0 7 -3 14 -7 16 -5 2 -18
23 -29 48 -12 25 -40 84 -63 133 -40 84 -45 114 -15 103 8 -3 14 -1 14 4 0 5
8 9 18 9 16 0 50 6 62 12 3 1 10 3 15 4 6 1 17 5 25 8 8 3 33 11 55 17 22 6
49 15 60 20 18 7 52 20 65 25 3 1 14 5 25 10 100 41 134 52 139 47 3 -3 6 -1
6 5 0 9 77 39 93 35 4 -1 7 3 7 8 0 6 6 10 14 10 7 0 24 -26 36 -57z m1108 42
c2 -15 2 -22 2 -72 -1 -67 11 -230 19 -254 5 -14 5 -32 1 -40 -5 -8 -4 -19 2
-26 7 -9 7 -13 -1 -13 -8 0 -9 -6 -3 -17 5 -10 8 -47 8 -83 l-1 -64 -100 -3
c-277 -8 -356 -9 -366 -2 -10 6 -13 47 -22 271 -1 32 -6 58 -12 58 -5 0 -4 4
4 9 8 5 10 14 6 22 -5 7 -8 36 -8 66 0 29 -4 53 -9 53 -5 0 -5 8 1 17 5 10 5
26 0 40 -5 13 -7 23 -6 24 1 0 88 2 192 4 200 5 273 10 283 19 8 8 8 8 10 -9z
m-781 -593 c19 -15 83 -125 83 -144 0 -6 22 -42 62 -101 7 -9 21 -20 31 -23
10 -3 16 -8 14 -10 -9 -9 -77 30 -77 43 0 8 -4 11 -10 8 -5 -3 -10 1 -10 9 0
9 -4 16 -10 16 -5 0 -10 4 -10 9 0 19 -76 131 -96 142 -38 20 -124 19 -124 -2
0 -5 15 -23 33 -42 17 -18 37 -40 42 -49 66 -100 150 -164 205 -156 16 3 30 0
30 -5 0 -5 11 -2 23 6 13 8 39 17 58 20 72 10 77 14 95 77 9 28 10 115 3 136
-14 39 1 44 147 47 76 1 145 6 152 10 6 5 12 4 12 -1 0 -5 11 -8 25 -7 14 2
25 -1 25 -6 0 -5 -4 -9 -8 -9 -8 0 -6 -174 2 -255 4 -46 18 -109 25 -115 3 -3
13 -18 23 -35 9 -16 30 -38 47 -49 l32 -18 -7 63 c-3 35 -7 87 -10 114 -2 28
-6 75 -10 105 -3 30 -6 79 -7 107 -1 29 -6 53 -10 53 -5 0 -5 5 -2 10 3 6 1
10 -5 10 -6 0 -8 5 -4 12 5 8 2 9 -10 5 -9 -4 -15 -3 -12 2 3 5 23 8 43 8 33
-2 38 -5 37 -24 0 -13 3 -23 7 -23 5 0 6 -6 4 -12 -2 -7 -7 -51 -10 -98 -3
-47 -6 -89 -6 -95 -3 -22 12 -89 22 -102 6 -7 8 -13 3 -13 -17 0 52 -52 94
-70 12 -5 22 -14 22 -20 0 -6 4 -9 8 -6 5 3 23 -8 40 -24 18 -16 32 -26 32
-22 1 4 10 -4 20 -17 11 -13 20 -20 20 -17 0 4 38 -32 85 -79 47 -47 83 -90
80 -96 -4 -5 -1 -9 4 -9 6 0 27 -26 47 -57 21 -32 45 -69 54 -83 9 -14 22 -41
30 -60 8 -19 16 -37 20 -40 7 -6 47 -125 55 -165 4 -16 8 -51 11 -77 l4 -46
-58 -1 c-72 0 -85 8 -88 56 -4 51 -66 255 -84 273 -3 3 -16 26 -30 52 -13 26
-38 64 -55 84 -66 82 -146 151 -141 122 5 -23 30 -72 48 -92 10 -11 18 -24 18
-28 0 -5 12 -27 27 -51 14 -23 26 -48 26 -54 0 -7 4 -13 8 -13 8 0 19 -28 18
-43 0 -4 7 -19 15 -33 9 -13 14 -24 10 -24 -4 0 -2 -6 4 -12 18 -22 45 -136
44 -185 0 -13 5 -23 10 -23 6 0 6 -6 -1 -14 -10 -12 -45 -14 -179 -12 -92 1
-173 6 -181 10 -9 6 -12 5 -8 -1 5 -7 -13 -10 -53 -9 -34 2 -63 -1 -67 -7 -3
-5 -5 -83 -4 -173 0 -90 -3 -164 -7 -165 -12 0 -296 -1 -318 0 -20 1 -20 5
-20 327 1 179 -3 328 -8 331 -4 3 -2 9 5 13 10 7 10 12 1 23 -10 12 -59 14
-279 13 l-268 -1 0 -352 0 -351 -33 -4 c-18 -2 -35 0 -38 4 -3 4 -14 3 -25 -2
-13 -8 -19 -7 -19 0 0 6 -5 8 -10 5 -9 -5 -126 -8 -237 -5 -16 0 -18 15 -18
171 0 94 -3 173 -8 176 -4 2 -119 4 -256 4 -219 0 -250 2 -255 16 -4 8 -2 21
2 27 12 15 12 152 1 185 -13 36 -53 79 -124 131 -58 43 -105 88 -105 101 0 14
130 135 142 132 4 -2 8 1 8 6 0 5 19 24 43 43 l42 35 2 -34 c1 -27 41 -98 46
-84 1 2 22 -7 47 -19 56 -29 154 -33 193 -7 25 16 44 67 33 86 -3 5 8 14 24
21 16 7 27 16 25 20 -3 5 -1 11 4 14 27 17 -10 167 -46 189 -7 4 -13 15 -13
22 0 8 -5 15 -12 15 -6 0 -8 3 -5 7 4 3 2 12 -4 19 -17 21 -14 71 6 91 10 10
21 18 24 17 14 -3 61 19 61 27 0 6 6 9 13 7 6 -1 28 5 47 14 35 16 68 29 83
33 4 2 10 4 15 5 4 2 12 4 17 5 6 1 17 5 25 8 35 14 166 59 180 62 8 2 42 16
75 32 101 49 109 52 140 52 17 0 40 -7 52 -17z m733 -22 c0 -5 -2 -10 -4 -10
-3 0 -8 5 -11 10 -3 6 -1 10 4 10 6 0 11 -4 11 -10z m-2266 -75 c-114 -105
-150 -135 -161 -135 -7 0 -13 -4 -13 -8 0 -4 -13 -16 -30 -25 -46 -28 -36 -10
29 52 77 72 101 92 101 84 0 -4 7 3 16 15 8 12 22 22 30 22 8 0 14 3 14 8 0 9
53 42 59 37 2 -3 -18 -25 -45 -50z m121 18 c4 -16 42 -62 91 -110 47 -44 81
-84 75 -87 -6 -4 -16 2 -23 14 -7 11 -17 20 -23 20 -5 0 -26 15 -46 33 -59 52
-93 77 -104 77 -6 0 -21 -11 -33 -24 -18 -21 -19 -26 -6 -37 8 -6 14 -15 14
-19 0 -5 27 -36 60 -70 33 -34 60 -66 60 -71 0 -5 5 -9 11 -9 5 0 30 -19 54
-42 133 -132 181 -160 223 -135 26 17 10 -10 -26 -40 -20 -17 -48 -41 -61 -52
-13 -12 -28 -21 -33 -21 -5 0 -6 -4 -3 -10 3 -5 1 -10 -5 -10 -6 0 -21 -10
-34 -22 -27 -26 -57 -51 -73 -61 -13 -8 -61 32 -214 183 -183 180 -216 210
-236 213 -18 2 -23 8 -23 28 0 5 5 7 10 4 6 -3 10 -1 10 4 0 6 7 11 17 11 9 0
13 3 10 6 -4 4 13 19 36 35 23 16 54 39 68 51 15 13 41 34 59 48 17 13 53 46
78 72 26 26 50 47 53 47 4 1 10 -11 14 -26z m205 -219 c0 -2 -7 -4 -15 -4 -8
0 -15 4 -15 10 0 5 7 7 15 4 8 -4 15 -8 15 -10z m196 -196 c4 4 2 -1 -5 -10
-7 -10 -16 -18 -19 -18 -3 0 -2 3 1 6 3 4 2 16 -4 28 -9 19 -9 19 4 4 8 -10
18 -14 23 -10z m67 -64 c-4 -11 -9 -12 -19 -3 -18 15 -18 14 5 16 14 1 18 -3
14 -13z m51 -38 c19 -19 37 -32 40 -29 3 3 12 1 19 -5 8 -7 17 -9 20 -5 4 3 7
2 7 -3 0 -5 18 -9 40 -8 46 1 51 -7 16 -25 -30 -17 -80 -6 -109 23 -43 43 -81
86 -74 86 3 0 22 -15 41 -34z m921 -398 c4 -4 -2 -17 -14 -29 -11 -12 -18 -26
-15 -31 3 -4 1 -8 -4 -8 -6 0 -13 -12 -18 -27 -4 -16 -8 -30 -9 -33 -1 -3 -6
-20 -10 -38 -5 -23 -10 -29 -16 -21 -4 7 -3 19 3 26 8 10 7 13 -3 14 -10 0
-11 2 -1 6 6 2 9 9 6 15 -8 12 -9 112 -1 124 6 10 73 12 82 2z m222 -24 l21
-4 0 -348 c-1 -192 1 -353 5 -358 6 -10 41 -10 120 0 20 2 40 0 43 -5 3 -5 11
-6 17 -2 17 11 37 13 37 4 0 -4 7 -8 15 -8 8 0 12 3 10 7 -5 8 91 3 113 -5 6
-2 12 1 12 7 0 7 4 7 13 -1 8 -6 17 -8 20 -4 9 8 57 11 57 3 0 -3 32 -5 70 -6
79 -1 74 -8 70 97 -2 63 16 158 40 205 10 21 20 35 20 29 0 -5 5 -3 10 6 10
17 43 20 215 23 l80 1 0 -30 c0 -26 -5 -63 -19 -142 -3 -12 -9 -31 -16 -42 -6
-12 -8 -21 -4 -21 3 0 1 -7 -6 -15 -7 -8 -10 -15 -7 -15 3 0 0 -12 -8 -27 -8
-15 -12 -30 -9 -35 3 -4 1 -8 -3 -8 -5 0 -15 -16 -22 -35 -7 -19 -17 -35 -22
-35 -6 0 -7 -4 -4 -10 3 -5 1 -10 -4 -10 -6 0 -10 -3 -9 -7 4 -13 -68 -114
-75 -106 -4 3 -7 1 -7 -6 0 -7 -29 -41 -65 -75 -62 -59 -65 -65 -65 -109 0
-46 5 -52 38 -48 24 4 177 147 217 205 11 15 26 34 33 41 6 8 12 17 12 20 0 4
9 19 19 34 24 34 94 201 87 208 -3 3 0 15 5 26 12 21 15 36 25 147 4 41 8 82
9 90 1 11 19 15 74 17 l72 2 -6 -87 c-2 -48 -7 -97 -10 -109 -3 -13 -7 -32
-10 -44 -15 -70 -76 -229 -87 -229 -5 0 -7 -4 -4 -8 3 -5 -6 -25 -19 -45 -14
-20 -25 -41 -25 -46 0 -6 -3 -11 -8 -11 -4 0 -16 -16 -26 -35 -11 -20 -43 -60
-71 -90 -28 -30 -49 -55 -47 -55 3 0 -13 -14 -34 -31 -21 -17 -41 -34 -44 -38
-3 -4 -30 -24 -60 -46 -30 -22 -58 -43 -61 -48 -3 -5 -10 -9 -15 -9 -5 -1 -25
-11 -44 -23 -19 -12 -57 -32 -85 -45 -27 -13 -53 -28 -57 -34 -4 -6 -8 -8 -8
-4 0 4 -25 -4 -55 -17 -30 -14 -55 -23 -55 -20 0 2 -25 -5 -55 -15 -30 -10
-55 -17 -55 -14 0 3 -8 0 -18 -5 -44 -23 -221 -36 -412 -29 -121 4 -386 67
-465 111 -11 6 -23 10 -27 9 -5 -1 -8 2 -8 7 0 8 -37 24 -52 22 -5 -1 -8 2 -8
7 0 4 -17 16 -37 27 -21 11 -40 22 -43 25 -3 3 -21 16 -40 30 -50 34 -53 38
-128 111 -66 64 -128 136 -146 168 -5 9 -12 18 -15 21 -23 18 -137 230 -124
230 3 0 0 6 -6 13 -6 8 -12 22 -14 33 -1 10 -5 24 -9 29 -6 11 -35 141 -37
165 -6 109 -5 120 6 121 45 4 93 3 93 -1 0 -3 21 -7 48 -8 48 -2 107 -9 107
-12 0 -1 15 -3 33 -6 47 -6 79 -30 77 -57 -1 -12 2 -25 7 -28 5 -3 10 -34 11
-68 1 -33 4 -61 7 -61 3 0 5 -24 5 -52 -1 -29 0 -58 2 -63 2 -7 109 -10 321
-10 218 1 319 -2 324 -9 10 -14 9 -18 14 189 4 194 6 218 30 340 10 48 62 155
78 161 9 3 13 10 10 15 -5 8 9 13 29 10 4 0 7 3 7 7 0 9 53 13 87 6z"/>
<path d="M3426 3523 c-2 -2 -12 -6 -23 -8 -10 -1 -17 -7 -16 -12 1 -5 4 -89 8
-188 3 -99 8 -193 11 -210 2 -16 6 -50 9 -73 4 -53 5 -53 47 -54 59 -1 69 2
62 13 -4 7 -8 44 -10 83 -6 126 -12 185 -19 195 -3 6 -1 11 5 11 6 0 8 5 4 12
-4 6 -8 30 -10 52 -6 77 -13 138 -19 156 -5 17 -39 33 -49 23z"/>
<path d="M2895 2552 c-3 -4 -41 -7 -83 -9 -68 -1 -216 -27 -252 -44 -3 -1 -9
-3 -15 -4 -9 -2 -20 -6 -92 -37 -16 -6 -31 -11 -35 -10 -5 1 -8 -2 -8 -7 0 -5
-10 -13 -22 -17 -29 -9 -99 -54 -115 -74 -7 -8 -13 -11 -13 -6 0 5 -8 -1 -19
-12 -10 -12 -21 -22 -24 -22 -8 0 -57 -46 -57 -53 0 -2 36 -3 80 -1 87 3 117
17 171 79 15 16 49 41 76 55 26 14 51 30 55 35 4 6 8 6 8 1 0 -5 7 -3 15 4 8
7 15 10 15 7 0 -3 15 0 34 8 18 8 36 11 40 8 3 -4 6 0 6 7 0 7 3 11 6 8 3 -3
29 1 57 9 29 8 61 16 72 17 11 2 20 4 20 6 0 1 9 3 20 5 11 2 34 8 52 13 17 6
34 8 36 6 2 -3 7 2 10 10 6 14 -26 29 -38 18z"/>
<path d="M1936 1141 c-8 -13 27 -81 80 -156 41 -59 146 -165 163 -165 4 0 16
-9 26 -20 10 -11 24 -20 32 -20 7 0 13 -4 13 -9 0 -5 18 -17 40 -27 22 -10 40
-21 40 -26 0 -4 3 -7 8 -6 4 1 30 -10 58 -24 184 -96 472 -148 669 -122 76 10
90 12 90 14 0 1 11 4 24 6 38 7 36 11 -16 27 -26 8 -75 25 -108 37 -42 16 -78
22 -120 20 -154 -5 -192 -1 -304 32 -36 10 -70 20 -76 21 -5 2 -16 6 -22 10
-7 5 -21 10 -30 12 -10 2 -39 13 -65 25 -26 11 -51 20 -54 20 -4 -1 -10 2 -13
7 -3 5 -37 24 -74 43 -38 19 -73 41 -79 47 -6 7 -16 13 -23 13 -7 0 -27 16
-46 35 -19 19 -37 35 -41 35 -9 0 -88 80 -114 116 -37 51 -52 65 -58 55z"/>
<path d="M3488 813 c-28 -18 -68 -95 -68 -133 0 -16 5 -19 24 -16 60 11 100
53 114 119 10 47 9 47 -17 47 -14 0 -38 -8 -53 -17z"/>
<path d="M454 3542 c-12 -1 -34 -17 -50 -33 -25 -26 -29 -38 -28 -87 0 -44 6
-66 26 -97 54 -84 134 -143 188 -140 97 6 146 96 102 185 -27 56 -66 110 -79
110 -6 0 -13 4 -15 8 -1 4 -17 17 -33 29 -31 22 -74 32 -111 25z m56 -31 c0
-5 10 -12 23 -15 49 -13 131 -116 142 -177 10 -57 -15 -91 -77 -103 -47 -8
-170 97 -185 158 -13 54 -13 69 -2 95 7 16 23 34 34 40 26 12 65 14 65 2z"/>
<path d="M4570 3501 c0 -8 3 -12 6 -8 13 12 62 -23 71 -50 5 -15 8 -118 7
-228 -4 -386 -1 -369 -61 -396 -18 -7 -33 -17 -33 -20 0 -12 13 -18 24 -12 15
10 76 10 76 1 0 -4 10 -4 23 0 12 4 55 7 95 7 40 -1 75 2 78 7 3 4 -2 5 -10 2
-9 -3 -16 -1 -16 5 0 6 -7 11 -15 11 -8 0 -23 9 -33 20 -18 19 -19 40 -20 296
0 259 8 352 27 339 5 -3 12 2 15 10 3 8 9 15 13 14 17 -3 33 1 33 9 0 4 -63 7
-140 7 -116 1 -140 -2 -140 -14z"/>
<path d="M793 3158 c-39 -18 -58 -44 -67 -93 -7 -34 24 -108 66 -157 69 -83
140 -112 203 -82 66 31 86 102 49 179 -19 40 -124 158 -124 140 0 -6 -5 -2
-11 8 -6 9 -14 15 -19 12 -4 -3 -19 -1 -32 4 -17 6 -35 3 -65 -11z m87 -27
c67 -27 159 -152 154 -210 -3 -42 -42 -75 -89 -76 -19 -1 -35 1 -35 4 0 3 -18
17 -40 31 -22 13 -40 27 -40 31 0 3 -11 18 -25 33 -14 15 -25 33 -25 40 0 8
-6 19 -14 25 -17 14 -12 92 7 103 6 3 21 13 32 21 20 16 34 15 75 -2z"/>
<path d="M4686 2532 c-3 -3 -20 -7 -38 -9 -37 -4 -117 -48 -125 -69 -3 -8 -8
-12 -13 -9 -8 5 -26 -50 -35 -109 -5 -31 -1 -51 26 -102 18 -36 34 -62 37 -60
2 3 20 -6 40 -19 19 -13 39 -22 44 -19 4 3 8 1 8 -4 0 -5 18 -12 40 -16 22 -3
40 -11 40 -17 0 -5 4 -8 9 -5 12 8 93 -33 119 -61 12 -13 23 -34 24 -46 0 -12
2 -29 3 -37 4 -41 -64 -138 -87 -124 -4 3 -8 1 -8 -4 0 -5 -10 -8 -22 -8 -13
1 -31 -2 -40 -6 -12 -6 -18 -5 -18 3 0 6 -6 9 -13 6 -14 -5 -81 22 -108 45
-22 19 -79 105 -73 110 2 3 -2 11 -11 18 -13 11 -15 1 -15 -89 0 -66 4 -101
11 -101 6 0 13 9 16 20 5 19 7 19 37 3 33 -18 68 -25 131 -27 22 0 43 -5 47
-11 5 -6 8 -6 8 2 0 7 9 10 22 8 12 -3 27 0 35 6 10 9 13 8 13 -2 0 -11 2 -11
10 1 5 8 10 12 10 7 0 -13 61 23 91 54 33 34 61 84 52 93 -4 3 -2 6 3 6 11 0
11 25 0 88 -4 23 -12 42 -17 42 -5 0 -9 6 -9 14 0 31 -112 96 -190 112 -8 2
-16 8 -18 14 -2 5 -8 8 -13 4 -14 -8 -107 46 -125 74 -25 38 -22 105 7 146 13
19 25 33 28 30 2 -2 9 1 16 6 6 5 20 11 31 13 10 1 25 7 33 11 8 5 12 5 9 0
-4 -5 12 -10 35 -11 22 -1 44 -8 48 -15 5 -7 9 -10 9 -6 0 16 71 -60 94 -102
14 -25 26 -40 27 -35 1 13 1 147 0 159 -1 5 -10 1 -22 -10 -12 -11 -23 -14
-27 -8 -12 16 -65 37 -107 41 -22 2 -48 5 -57 7 -9 2 -19 1 -22 -2z"/>
<path d="M4675 1533 c-83 -15 -86 -16 -105 -28 -8 -5 -19 -10 -25 -10 -13 0
-104 -68 -105 -78 0 -4 -9 -17 -20 -29 -11 -12 -20 -28 -20 -35 0 -7 -4 -13
-10 -13 -5 0 -10 -9 -10 -20 0 -11 -4 -20 -8 -20 -5 0 -9 -6 -10 -12 -6 -66
-11 -104 -12 -108 -1 -3 -2 -8 -2 -11 1 -4 2 -24 4 -45 1 -22 8 -54 15 -71 7
-18 11 -33 8 -33 -10 0 59 -94 89 -123 17 -15 39 -30 48 -33 10 -3 18 -10 18
-16 0 -6 3 -8 7 -5 3 4 17 0 30 -8 13 -9 23 -13 23 -10 0 2 12 0 28 -6 33 -13
152 -21 152 -10 0 4 -6 8 -12 8 -41 3 -78 12 -111 28 -44 21 -117 89 -117 110
0 8 -4 15 -8 15 -8 0 -26 47 -41 105 -7 28 -5 153 4 195 4 19 16 51 28 70 12
19 20 37 18 39 -11 11 75 92 124 116 48 23 65 27 109 22 92 -11 125 -26 179
-81 66 -66 72 -75 81 -110 4 -16 10 -26 13 -22 9 9 9 197 1 203 -5 2 -8 0 -8
-5 0 -5 -10 -13 -22 -19 -18 -8 -34 -4 -73 15 -27 14 -64 26 -82 26 -18 1 -33
5 -33 10 0 5 -2 7 -6 4 -3 -3 -19 -2 -37 1 -18 4 -63 2 -102 -6z"/>
<path d="M5034 1022 c4 -7 3 -12 -2 -12 -5 0 -16 -15 -23 -32 -25 -62 -109
-131 -180 -149 -50 -13 -67 -28 -26 -23 12 1 22 3 22 4 0 1 17 4 39 6 21 3 57
14 79 26 38 19 42 19 69 4 15 -10 28 -16 29 -14 7 27 3 190 -4 195 -6 3 -7 1
-3 -5z"/>
</g>
</svg>
