<svg width="25" height="28" viewBox="0 0 25 28" fill="none" xmlns="http://www.w3.org/2000/svg">
<path fill-rule="evenodd" clip-rule="evenodd" d="M17.7419 0.25C18.2594 0.25 18.6794 0.67 18.6794 1.1875L18.6799 2.24726C20.5051 2.3724 22.0209 2.99756 23.0938 4.07263C24.265 5.24888 24.8813 6.94013 24.875 8.96888V20.3726C24.875 24.5376 22.23 27.1251 17.9738 27.1251H7.40125C3.145 27.1251 0.5 24.5014 0.5 20.2776V8.96638C0.5 5.03787 2.85882 2.51618 6.70586 2.24769L6.70662 1.1875C6.70662 0.67 7.12663 0.25 7.64412 0.25C8.16162 0.25 8.58162 0.67 8.58162 1.1875L8.58125 2.22375H16.8038L16.8044 1.1875C16.8044 0.67 17.2244 0.25 17.7419 0.25ZM23 11.38H2.375V20.2776C2.375 23.4851 4.16 25.2501 7.40125 25.2501H17.9738C21.215 25.2501 23 23.5176 23 20.3726L23 11.38ZM18.2515 19.2454C18.769 19.2454 19.189 19.6654 19.189 20.1829C19.189 20.7004 18.769 21.1204 18.2515 21.1204C17.734 21.1204 17.309 20.7004 17.309 20.1829C17.309 19.6654 17.7227 19.2454 18.2402 19.2454H18.2515ZM12.7046 19.2454C13.2221 19.2454 13.6421 19.6654 13.6421 20.1829C13.6421 20.7004 13.2221 21.1204 12.7046 21.1204C12.1871 21.1204 11.7621 20.7004 11.7621 20.1829C11.7621 19.6654 12.1759 19.2454 12.6934 19.2454H12.7046ZM7.14612 19.2454C7.66362 19.2454 8.08362 19.6654 8.08362 20.1829C8.08362 20.7004 7.66362 21.1204 7.14612 21.1204C6.62862 21.1204 6.20238 20.7004 6.20238 20.1829C6.20238 19.6654 6.61737 19.2454 7.13487 19.2454H7.14612ZM18.2515 14.387C18.769 14.387 19.189 14.807 19.189 15.3245C19.189 15.842 18.769 16.262 18.2515 16.262C17.734 16.262 17.309 15.842 17.309 15.3245C17.309 14.807 17.7227 14.387 18.2402 14.387H18.2515ZM12.7046 14.387C13.2221 14.387 13.6421 14.807 13.6421 15.3245C13.6421 15.842 13.2221 16.262 12.7046 16.262C12.1871 16.262 11.7621 15.842 11.7621 15.3245C11.7621 14.807 12.1759 14.387 12.6934 14.387H12.7046ZM7.14612 14.387C7.66362 14.387 8.08362 14.807 8.08362 15.3245C8.08362 15.842 7.66362 16.262 7.14612 16.262C6.62862 16.262 6.20238 15.842 6.20238 15.3245C6.20238 14.807 6.61737 14.387 7.13487 14.387H7.14612ZM16.8038 4.09875H8.58125L8.58162 5.30125C8.58162 5.81875 8.16162 6.23875 7.64412 6.23875C7.12663 6.23875 6.70662 5.81875 6.70662 5.30125L6.70596 4.12713C3.90567 4.36237 2.375 6.05982 2.375 8.96638V9.505H23L23 8.96638C23.005 7.42263 22.59 6.22263 21.7663 5.39763C21.0431 4.67239 19.9861 4.23925 18.6804 4.12773L18.6794 5.30125C18.6794 5.81875 18.2594 6.23875 17.7419 6.23875C17.2244 6.23875 16.8044 5.81875 16.8044 5.30125L16.8038 4.09875Z" fill="#BBBBBB"/>
</svg>
